# xmcd CD database file
#
# Track frame offsets:
#	150
#	19353
#	44518
#	67399
#	99758
#	128083
#	154113
#	184126
#	211485
#	243399
#	272463
#	289061
#
# Disc length: 4223 seconds
#
# Revision: 0
# Processed by: cddbd v1.5.1PL0 Copyright (c) Steve Scherf et al.
# Submitted via: CDex 1.51
#
DISCID=b0107d0c
DTITLE=Apoptygma Berzerk - Singles
DYEAR=1990
DGENRE=Salsa
TTITLE0=Borrowed Time (Levitated Demo Version)
TTITLE1=Burnin Heretic (Live)
TTITLE2=Electricity
TTITLE3=Mourn (APB Remix)
TTITLE4=Near (Banilla Dream Version)
TTITLE5=Non Stop Violence (CNN Version)
TTITLE6=Nothing Else Matters
TTITLE7=Ohm Sweet Ohm
TTITLE8=Paranoia (Haunted Club Version)
TTITLE9=Paranoia
TTITLE10=Snutt 7
TTITLE11=Untitled Too (Sweep Remix)
EXTD=YEAR: 1990
EXTT0=
EXTT1=
EXTT2=
EXTT3=
EXTT4=
EXTT5=
EXTT6=
EXTT7=
EXTT8=
EXTT9=
EXTT10=
EXTT11=
PLAYORDER=
